<svg height="305.532" viewBox="0 0 305.532 305.532" width="305.532" xmlns="http://www.w3.org/2000/svg" xmlns:xlink="http://www.w3.org/1999/xlink"><linearGradient id="a" gradientUnits="objectBoundingBox" x1=".147" x2=".863" y1=".853" y2=".156"><stop offset="0" stop-color="#ff4f01"/><stop offset="1" stop-color="#f90"/></linearGradient><radialGradient id="b" cx=".5" cy=".5" gradientUnits="objectBoundingBox" r=".5"><stop offset="0" stop-color="#1a1a1a"/><stop offset="1" stop-color="#292d32"/></radialGradient><radialGradient id="c" cx=".5" cy=".5" gradientUnits="objectBoundingBox" r=".5"><stop offset="0" stop-color="#4d4d4d"/><stop offset="1"/></radialGradient><radialGradient id="d" cx=".5" cy=".5" gradientUnits="objectBoundingBox" r=".5"><stop offset="0" stop-color="#999"/><stop offset=".004" stop-color="#999"/><stop offset="1" stop-color="#343030"/></radialGradient><linearGradient id="e" gradientUnits="objectBoundingBox" x2=".91" y1=".187" y2=".586"><stop offset="0" stop-color="#eec146"/><stop offset=".113" stop-color="#fefcfb"/><stop offset=".251" stop-color="#ffb813"/><stop offset="1" stop-color="#98690a"/></linearGradient><linearGradient id="f" gradientUnits="objectBoundingBox" x1=".146" x2=".5" y1=".374" y2=".782"><stop offset="0" stop-color="#43df37"/><stop offset="1" stop-color="#0e5709"/></linearGradient><path d="m1542.282 203.765a65.769 65.769 0 0 1 -131.088 7.681 65.769 65.769 0 1 1 131.088-7.677z" fill="url(#a)" opacity=".47" transform="translate(-1323.75 -51)"/><ellipse cx="79.5" cy="10.5" fill="url(#b)" rx="79.5" ry="10.5" transform="translate(73.266 267.21)"/><rect fill="#1a1a1a" height="173.328" rx="9" width="92.415" x="106.266" y="104.445"/><rect fill="#6cabcc" height="160.096" rx="7.956" width="86.342" x="109.302" y="107.339"/><path d="m946.484 262.943h-25.568a2.484 2.484 0 0 1 -2.346-1.669l-2.528-7.274h35.316l-2.527 7.274a2.484 2.484 0 0 1 -2.347 1.669z" fill="#1a1a1a" transform="translate(-781.226 -147.122)"/><g transform="translate(147.499 108.811)"><circle cx="2.538" cy="2.538" fill="url(#c)" r="2.538"/><circle cx="1.678" cy="1.678" fill="url(#d)" r="1.678" transform="translate(6.593 .86)"/></g><path d="m950.529 538.976 12.111 5.815v29.209c-.035 1.836-1.372 2.873-3.618 3.352h-21.762l-47.317-21.352z" opacity=".13" transform="translate(-766.995 -302.515)"/><rect fill="#e6e6e6" height="17.949" rx="3" width="63.05" x="121.765" y="236.03"/><path d="m990.014 332.975 6.737 3.422v86.624l-44.251-21.148 15.872-47.121z" opacity=".13" transform="translate(-801.106 -190.186)"/><path d="m978 337.272 18.755 9.637v75.863l-44.255-21.147 15.871-47.125z" opacity=".08" transform="translate(-801.106 -189.938)"/><path d="m938.5 375.27a88.949 88.949 0 0 1 -18.313 25.1 5.647 5.647 0 0 1 -7.9-.12c-8.321-8.4-15.606-16.8-18.731-25.184-.035-.093-.072-.184-.113-.274a65.854 65.854 0 0 1 -5.835-33.6 5.651 5.651 0 0 1 4.19-4.939 91.8 91.8 0 0 1 48.078-.135 5.661 5.661 0 0 1 4.213 5.6c-.241 11.109-1.56 22.105-5.287 32.849a6.021 6.021 0 0 1 -.302.703z" fill="url(#e)" transform="translate(-765.577 -190.186)"/><path d="m949.739 401.889a5.627 5.627 0 0 0 4.468-1.524 88.95 88.95 0 0 0 18.313-25.1 6.04 6.04 0 0 0 .3-.711c3.728-10.744 5.047-21.74 5.287-32.849a5.661 5.661 0 0 0 -4.213-5.6 92.884 92.884 0 0 0 -24.158-3.136z" opacity=".1" transform="translate(-799.599 -190.186)"/><path d="m929.461 373.8a3.184 3.184 0 0 1 -2.286-.969l-13.725-14.173a3.183 3.183 0 0 1 4.573-4.429l11.364 11.734 34-37.439a3.183 3.183 0 1 1 4.712 4.28l-36.283 39.952a3.185 3.185 0 0 1 -2.305 1.043z" fill="url(#f)" transform="translate(-779.324 -187.191)"/><g fill="#ff4f01"><path d="m904.916 549.343-2.194 3v.048l3.488-.48v1.632l-3.488-.432v.049l2.217 2.88-1.454.864-1.386-3.36h-.046l-1.5 3.384-1.316-.864 2.194-2.928v-.048l-3.419.456v-1.632l3.4.456v-.048l-2.171-2.928 1.408-.84 1.432 3.336h.046l1.409-3.36z" transform="translate(-771.394 -307.723)"/><path d="m937.542 549.343-2.194 3v.048l3.488-.48v1.632l-3.488-.432v.049l2.217 2.88-1.455.864-1.387-3.36h-.046l-1.5 3.384-1.316-.864 2.194-2.928v-.048l-3.419.456v-1.632l3.4.456v-.048l-2.171-2.928 1.408-.84 1.432 3.336h.046l1.409-3.36z" transform="translate(-789.184 -307.723)"/><path d="m1002.794 549.343-2.194 3v.048l3.488-.48v1.632l-3.488-.432v.049l2.217 2.88-1.455.864-1.386-3.36h-.046l-1.5 3.384-1.317-.864 2.194-2.928v-.048l-3.418.456v-1.632l3.4.456v-.048l-2.171-2.928 1.409-.84 1.432 3.336h.041l1.409-3.36z" transform="translate(-824.765 -307.723)"/><path d="m970.168 549.343-2.194 3v.048l3.488-.48v1.632l-3.488-.432v.049l2.217 2.88-1.455.864-1.386-3.36h-.05l-1.5 3.384-1.317-.864 2.195-2.928v-.048l-3.419.456v-1.632l3.4.456v-.048l-2.171-2.928 1.409-.84 1.432 3.336h.046l1.409-3.36z" transform="translate(-806.975 -307.723)"/></g></svg>